# xmcd
# Copyright (C) 1995-1998 Ti Kan
#
# Track frame offsets:
#       150
#       16789
#       37540
#       71841
#       95242
#       122443
#       138769
#       162108
#       184584
#       202235
#       223861
#
# Disc length: 3335 seconds
#
# Revision: 0
# Processed by: cddbd v1.4PL0 Copyright (c) Steve Scherf et al.
# Submitted via: CD-Transfer v1.0
#
DISCID=940d050b
DTITLE=Ug3 - Womanized
DYEAR=2003
DGENRE=
TTITLE0=Stop By Monie's
TTITLE1=I Wish
TTITLE2=Use Me
TTITLE3=Le Lis
TTITLE4=Lite Age
TTITLE5=Threadin' The Needle
TTITLE6=Mujeres
TTITLE7=Superstition
TTITLE8=You Might Need Somebody
TTITLE9=The Sidewinder
TTITLE10=Red Baron
EXTD=
EXTT0=
EXTT1=
EXTT2=
EXTT3=
EXTT4=
EXTT5=
EXTT6=
EXTT7=
EXTT8=
EXTT9=
EXTT10=
PLAYORDER=
